<svg fill="none" height="64" viewBox="0 0 64 64" width="64" xmlns="http://www.w3.org/2000/svg"><path clip-rule="evenodd" d="m32 0c-17.6731 0-32 14.3269-32 32s14.3269 32 32 32 32-14.3269 32-32-14.3269-32-32-32zm1.9283 23.3677c2.0784-1.836 4.7616-2.8872 7.6104-2.8872 6.3504 0 11.52 5.1672 11.52 11.52s-5.1672 11.52-11.52 11.52c-3.9 0-7.5048-1.9512-9.6408-5.2224l-5.616-8.3496c-.744-1.1352-1.944-1.788-3.2424-1.788-2.1168 0-3.84 1.7232-3.84 3.84s1.7232 3.84 3.84 3.84c1.2984 0 2.4984-.6528 3.2136-1.7472l4.3968 6.54c-2.0784 1.836-4.7616 2.8872-7.6104 2.8872-6.3528 0-11.52-5.1672-11.52-11.52s5.1672-11.52 11.52-11.52c3.8976 0 7.5024 1.9512 9.6408 5.22l5.616 8.3496c.744 1.1352 1.944 1.788 3.2424 1.788 2.1168 0 3.84-1.7232 3.84-3.84s-1.7232-3.84-3.84-3.84c-1.296 0-2.4984.6552-3.2136 1.7472z" fill="#fff" fill-rule="evenodd"/></svg>