<svg fill="none" height="32" viewBox="0 0 32 32" width="32" xmlns="http://www.w3.org/2000/svg"><rect fill="#121619" height="32" rx="16" width="32"/><path d="m16.082 24.8852c4.1311 0 6.918-2.295 6.918-5.6721 0-3.8688-3.5738-4.7541-6.1311-5.377-1.9673-.4918-2.4919-.7541-2.4919-1.2787s.6886-.9181 1.6394-.9181c1.2459 0 2.5246.6558 3.3115 1.705l3.0164-2.4263c-1.2787-1.86882-3.541-2.918-6.1968-2.918-3.836 0-6.3934 2-6.3934 5.0164 0 3.5738 3.2787 4.5246 5.7377 5.2131 1.4754.4262 2.6557.7541 2.6557 1.541 0 .5902-.7213 1.1803-2.0327 1.1803-1.9017 0-3.0164-1.2787-3.7705-2.1967l-3.3443 2.9508c1.1475 1.1803 3.2787 3.1803 7.082 3.1803z" fill="#fff"/></svg>