<svg fill="none" height="400" viewBox="0 0 400 400" width="400" xmlns="http://www.w3.org/2000/svg"><path clip-rule="evenodd" d="m152.13 200.029 85.299 85.313 53.841-53.842c9.628-8.668 24.357-8.283 33.518.878 9.16 9.161 9.546 23.89.877 33.517l-71.052 71.065c-9.544 9.387-24.851 9.387-34.395 0l-102.51-102.536v60.945c0 13.451-10.903 24.354-24.3538 24.354-13.4504 0-24.3542-10.903-24.3542-24.354v-190.759c0-13.4507 10.9038-24.3544 24.3542-24.3544 13.4508 0 24.3538 10.9037 24.3538 24.3544v60.945l102.497-102.5101c9.541-9.3932 24.854-9.3932 34.395 0l71.105 71.0521c8.669 9.627 8.283 24.356-.878 33.517-9.16 9.161-23.889 9.546-33.517.878l-53.841-53.842zm85.339-24.381c-9.862-.005-18.757 5.932-22.534 15.042-3.778 9.11-1.696 19.599 5.276 26.574 6.972 6.976 17.46 9.064 26.572 5.291s15.053-12.664 15.053-22.526c.004-6.466-2.562-12.669-7.131-17.243-4.57-4.575-10.77-7.147-17.236-7.151z" fill="#23af91" fill-rule="evenodd"/></svg>