<svg fill="none" height="400" viewBox="0 0 400 400" width="400" xmlns="http://www.w3.org/2000/svg" xmlns:xlink="http://www.w3.org/1999/xlink"><linearGradient id="a" gradientUnits="userSpaceOnUse" x1="125.945" x2="297.66" y1="204.041" y2="267.495"><stop offset="0" stop-color="#53e57a" stop-opacity="0"/><stop offset="1" stop-color="#00a977"/></linearGradient><path d="m400 0h-400v400h400z" fill="#fff"/><path d="m355.368 246.468-74.63-127.406c-13.503-22.7494-46.55-22.7494-60.054 0l-74.629 127.406c-13.504 22.75 3.195 51.107 30.202 51.107h149.249c26.656-.01 43.005-28.357 29.862-51.107z" fill="#00b897"/><path d="m255.865 248.922-4.267-7.35c-3.907-6.999-12.792-21.698-12.792-21.698l-59.343-100.801c-13.504-22.7501-46.551-22.7501-60.054 0l-74.6298 127.406c-13.5034 22.749 3.1955 51.107 30.2023 51.107h147.8265 61.476 41.222c-36.954-.011-52.591-19.606-69.641-48.664z" fill="#76fcb2"/><path d="m255.865 248.922-4.267-7.35c-3.907-6.999-12.792-21.698-12.792-21.698l-38.738-65.806-54.013 92.4c-13.504 22.75 3.195 51.107 30.202 51.107h46.551 61.476 41.222c-36.944 0-52.581-19.606-69.641-48.653z" fill="url(#a)"/></svg>