<svg fill="none" height="49" viewBox="0 0 115 49" width="115" xmlns="http://www.w3.org/2000/svg"><g fill="#000"><path d="m89.5954 31.3334h9.28v-24.53337h-8.96v-6.400006h15.6796v30.933376h8.64v6.4h-24.6396z"/><path d="m79.2858 33.8933h-.96c-.2844.6045-.64 1.1911-1.0666 1.76-.3911.5334-.9245 1.0134-1.6 1.44-.64.4267-1.4223.7645-2.3467 1.0134-.8889.2489-1.9733.3733-3.2533.3733-1.6356 0-3.1645-.2844-4.5867-.8533-1.3867-.6045-2.6133-1.4756-3.68-2.6134-1.0311-1.1733-1.8489-2.5955-2.4533-4.2666-.5689-1.6711-.8534-3.5911-.8534-5.76v-.96c0-2.1334.3022-4.0356.9067-5.7067.64-1.6711 1.4933-3.0756 2.56-4.2133 1.1022-1.1734 2.3644-2.0623 3.7867-2.6667 1.4577-.6045 2.9866-.9067 4.5866-.9067 2.1334 0 3.8223.4089 5.0667 1.2267 1.2444.7822 2.2222 1.9022 2.9333 3.36h.96v-3.84h6.72v37.12h-6.72zm-7.04-1.8133c2.0978 0 3.7867-.6578 5.0667-1.9733 1.3155-1.3511 1.9733-3.1111 1.9733-5.28v-.64c0-2.1689-.6578-3.9111-1.9733-5.2267-1.28-1.3511-2.9689-2.0267-5.0667-2.0267-2.0977 0-3.8044.6578-5.12 1.9734-1.28 1.28-1.92 3.04-1.92 5.28v.64c0 2.24.64 4.0177 1.92 5.3333 1.3156 1.28 3.0223 1.92 5.12 1.92z"/><path d="m48.7629 11.28h6.72v32.96c0 1.2089-.3911 2.2045-1.1733 2.9867-.7467.7822-1.7245 1.1733-2.9334 1.1733h-15.7333v-6.4h11.68c.96 0 1.44-.5333 1.44-1.6v-6.5066h-.96c-1.1733 3.0577-3.6978 4.5866-7.5733 4.5866-1.3156 0-2.5422-.2133-3.68-.64-1.1378-.4266-2.1334-1.0844-2.9867-1.9733s-1.5289-1.9911-2.0267-3.3067c-.4622-1.3511-.6933-2.9333-.6933-4.7466v-16.5334h6.72v15.1467c0 1.8844.4445 3.36 1.3333 4.4267.8889 1.0311 2.2223 1.5466 4 1.5466 2.0267 0 3.5023-.64 4.4267-1.92.96-1.3155 1.44-3.0933 1.44-5.3333z"/><path d="m27.2 28.0267c-.6044 3.1289-2.0444 5.6533-4.32 7.5733-2.24 1.92-5.2444 2.88-9.0133 2.88-1.9556 0-3.7867-.3022-5.49337-.9067-1.67111-.6044-3.12889-1.4755-4.37333-2.6133s-2.22222-2.5422-2.93333-4.2133c-.711114-1.6711-1.06667-3.5734-1.06667-5.7067v-.64c0-2.1333.355556-4.0533 1.06667-5.76.71111-1.7067 1.68889-3.1645 2.93333-4.3733 1.28-1.2089 2.75556-2.1334 4.42667-2.7734 1.70663-.64 3.52003-.96 5.44003-.96 3.6977 0 6.6844.96 8.96 2.88 2.3111 1.92 3.7689 4.4445 4.3733 7.5734l-6.6133 1.7066c-.2134-1.5644-.8889-2.9155-2.0267-4.0533s-2.7378-1.7067-4.8-1.7067c-.96 0-1.8667.1778-2.72.5334-.8533.3555-1.6.8711-2.24 1.5466-.64.64-1.15556 1.44-1.54667 2.4-.35555.9245-.53333 1.9734-.53333 3.1467v.32c0 1.1733.17778 2.2222.53333 3.1467.39111.8889.90667 1.6355 1.54667 2.24.64.6044 1.3867 1.0666 2.24 1.3866.8533.2845 1.76.4267 2.72.4267 2.0622 0 3.6267-.5156 4.6933-1.5467 1.1023-1.0311 1.8134-2.4177 2.1334-4.16z"/></g></svg>