<svg fill="none" height="64" viewBox="0 0 64 64" width="64" xmlns="http://www.w3.org/2000/svg"><path d="m0 0h64v64h-64z" fill="#6200ea"/><path d="m49.92 36.49c-.7964 4.1228-2.6939 7.4491-5.6922 9.979-2.9516 2.5299-6.9104 3.7948-11.8764 3.7948-2.5768 0-4.9895-.3982-7.2383-1.1946-2.2019-.7965-4.1228-1.9443-5.7625-3.4435-1.6398-1.4992-2.9281-3.3497-3.8651-5.5517-.937-2.2019-1.4055-4.7083-1.4055-7.5193v-.8433c0-2.811.4685-5.3409 1.4055-7.5897s2.2253-4.1696 3.8651-5.7625c1.6866-1.5929 3.6308-2.811 5.8328-3.6543 2.2488-.8432 4.6381-1.2649 7.168-1.2649 4.8723 0 8.8077 1.2649 11.8061 3.7948 3.0452 2.5299 4.9661 5.8562 5.7625 9.979l-8.714 2.2488c-.2811-2.0614-1.1713-3.8417-2.6705-5.3409s-3.6074-2.2488-6.3247-2.2488c-1.2649 0-2.4596.2343-3.584.7028s-2.1082 1.1478-2.9515 2.038c-.8433.8432-1.5226 1.8974-2.038 3.1623-.4685 1.2181-.7027 2.6002-.7027 4.1462v.4216c0 1.5461.2342 2.9282.7027 4.1462.5154 1.1713 1.1947 2.1551 2.038 2.9516.8433.7964 1.8271 1.4055 2.9515 1.8271 1.1244.3748 2.3191.5622 3.584.5622 2.7173 0 4.7787-.6793 6.1842-2.038 1.4523-1.3586 2.3893-3.1857 2.811-5.4814z" fill="#fff"/></svg>