<svg fill="none" height="48" viewBox="0 0 48 48" width="48" xmlns="http://www.w3.org/2000/svg"><rect fill="#651fff" height="48" rx="24" width="48"/><path d="m30.345 23.3176c.0237.2209.0394.4497.0394.6785 0 3.5266-2.8568 6.3826-6.3844 6.3826s-6.3844-2.856-6.3844-6.3826c0-3.5267 2.8568-6.3827 6.3844-6.3827 1.5152 0 2.9121.5286 4.0011 1.4122l4.7824-5.925c-2.3991-1.9408-5.4532-3.1006-8.7835-3.1006-7.7339.0079-14 6.2722-14 14.0039 0 7.7318 6.2661 13.9961 14 13.9961s14-6.2643 14-13.9961c0-.5049-.0316-1.0019-.0789-1.4911z" fill="#fff"/></svg>