<svg fill="none" height="48" viewBox="0 0 48 48" width="48" xmlns="http://www.w3.org/2000/svg" xmlns:xlink="http://www.w3.org/1999/xlink"><linearGradient id="a" gradientUnits="userSpaceOnUse" x1="0" x2="47.4678" y1="48" y2="-.520651"><stop offset="0" stop-color="#6200ea"/><stop offset="1" stop-color="#304ffe"/></linearGradient><rect fill="url(#a)" height="48" rx="24" width="48"/><path d="m31.1255 15c-2.1946 0-4.2616.8098-5.8627 2.2242l3.3871 5.0363c.5509-.8413 1.4772-1.346 2.4756-1.346 1.6307 0 2.9582 1.3275 2.9582 2.9582s-1.3275 2.9581-2.9582 2.9581c-1.0002 0-1.9247-.5029-2.4978-1.3774l-4.3263-6.4321c-1.6474-2.5182-4.4243-4.0213-7.4269-4.0213-4.8939 0-8.8745 3.9806-8.8745 8.8745s3.9806 8.8745 8.8745 8.8745c2.1946 0 4.2616-.8098 5.8627-2.2242l-3.3871-5.0381c-.5509.8431-1.4754 1.346-2.4756 1.346-1.6307 0-2.9582-1.3275-2.9582-2.9582s1.3275-2.9582 2.9582-2.9582c1.0002 0 1.9247.5029 2.4978 1.3774l4.3263 6.4322c1.6455 2.52 4.4225 4.0231 7.4269 4.0231 4.8939 0 8.8745-3.9806 8.8745-8.8745s-3.9824-8.8745-8.8745-8.8745z" fill="#fff"/></svg>