<svg fill="none" height="128" viewBox="0 0 128 128" width="128" xmlns="http://www.w3.org/2000/svg" xmlns:xlink="http://www.w3.org/1999/xlink"><linearGradient id="a" gradientUnits="userSpaceOnUse" x1="80.7276" x2="122.996" y1="37.9855" y2="81.7563"><stop offset=".21" stop-color="#f15a24"/><stop offset=".6841" stop-color="#fbb03b"/></linearGradient><linearGradient id="b" gradientUnits="userSpaceOnUse" x1="47.2724" x2="5.00332" y1="90.4589" y2="46.6882"><stop offset=".21" stop-color="#ed1e79"/><stop offset=".8929" stop-color="#522785"/></linearGradient><path d="m96.911 34c-7.1553 0-14.9556 3.6667-23.1998 10.8889-3.9113 3.4222-7.2892 7.0889-9.822 10.0222 0 0 0 0 .0222.0222v-.0222s3.9996 4.3556 8.422 9.0222c2.3779-2.8222 5.8002-6.6666 9.7331-10.1333 7.3337-6.4222 12.1111-7.7778 14.8445-7.7778 10.289 0 18.645 8.1556 18.645 18.1778 0 9.9556-8.378 18.1111-18.645 18.1778-.4667 0-1.0667-.0667-1.8223-.2223 3.0001 1.2889 6.2223 2.2223 9.2893 2.2223 18.844 0 22.533-12.2889 22.778-13.1778.555-2.2445.844-4.6.844-7.0222 0-16.6223-13.956-30.1778-31.089-30.1778z" fill="url(#a)"/><path d="m31.0889 94.4446c7.1555 0 14.9556-3.6668 23.2-10.889 3.9112-3.4222 7.2891-7.0889 9.8219-10.0222 0 0 0 0-.0222-.0222v.0222s-3.9996-4.3556-8.422-9.0223c-2.3777 2.8223-5.7999 6.6667-9.7332 10.1334-7.3334 6.4222-12.1112 7.7777-14.8445 7.7777-10.2889-.0221-18.6445-8.1777-18.6445-18.2 0-9.9555 8.3778-18.1111 18.6445-18.1777.4667 0 1.0666.0666 1.8222.2222-3-1.2889-6.2222-2.2223-9.2889-2.2223-18.84442 0-22.51109 12.289-22.777756 13.1556-.555555 2.2667-.844444 4.6-.844444 7.0222 0 16.6667 13.9555 30.2224 31.0889 30.2224z" fill="url(#b)"/><path d="m104.334 84.1111c-9.6453-.2444-19.6674-7.8444-21.7119-9.7333-5.2885-4.8889-17.489-18.1111-18.444-19.1556-8.9336-10.0222-21.0447-21.2222-33.0892-21.2222h-.0222-.0222c-14.6223.0667-26.91113 9.9778-30.200018 23.2.244448-.8667 5.066688-13.4 22.755518-12.9555 9.6445.2444 19.7111 7.9555 21.7778 9.8444 5.2889 4.8889 17.4891 18.1111 18.4447 19.1555 8.9331 10 21.0442 21.2002 33.0885 21.2002h.0222.0223c14.6225-.0667 26.9335-9.9779 30.2005-23.2001-.267.8666-5.112 13.2889-22.822 12.8666z" fill="#29abe2"/></svg>