<svg fill="none" height="64" viewBox="0 0 64 64" width="64" xmlns="http://www.w3.org/2000/svg" xmlns:xlink="http://www.w3.org/1999/xlink"><linearGradient id="a" gradientUnits="userSpaceOnUse" x1="0" x2="63.2904" y1="64" y2="-.694201"><stop offset="0" stop-color="#6200ea"/><stop offset="1" stop-color="#304ffe"/></linearGradient><path d="m0 32c0-17.6731 14.3269-32 32-32 17.6731 0 32 14.3269 32 32 0 17.6731-14.3269 32-32 32-17.6731 0-32-14.3269-32-32z" fill="url(#a)"/><path d="m41.5387 20.4805c-2.8488 0-5.532 1.0512-7.6104 2.8872l4.3968 6.5376c.7152-1.092 1.9176-1.7472 3.2136-1.7472 2.1168 0 3.84 1.7232 3.84 3.84s-1.7232 3.84-3.84 3.84c-1.2984 0-2.4984-.6528-3.2424-1.788l-5.616-8.3496c-2.1384-3.2688-5.7432-5.22-9.6408-5.22-6.3528 0-11.52 5.1672-11.52 11.52s5.1672 11.52 11.52 11.52c2.8488 0 5.532-1.0512 7.6104-2.8872l-4.3968-6.54c-.7152 1.0944-1.9152 1.7472-3.2136 1.7472-2.1168 0-3.84-1.7232-3.84-3.84s1.7232-3.84 3.84-3.84c1.2984 0 2.4984.6528 3.2424 1.788l5.616 8.3496c2.136 3.2712 5.7408 5.2224 9.6408 5.2224 6.3528 0 11.52-5.1672 11.52-11.52s-5.1696-11.52-11.52-11.52z" fill="#fff"/></svg>