<svg fill="none" viewBox="0 0 15 23" xmlns="http://www.w3.org/2000/svg" xmlns:xlink="http://www.w3.org/1999/xlink"><linearGradient id="a"><stop offset="0" stop-color="#46ff47"/><stop offset="1" stop-color="#9cff9d"/></linearGradient><linearGradient id="b" gradientUnits="userSpaceOnUse" x1="10.006" x2="15.704" xlink:href="#a" y1="10.672" y2="5.28"/><linearGradient id="c" gradientUnits="userSpaceOnUse" x1="10.003" x2="15.701" xlink:href="#a" y1="10.671" y2="5.28"/><linearGradient id="d" gradientUnits="userSpaceOnUse" x1="10.005" x2="15.703" xlink:href="#a" y1="10.672" y2="5.28"/><linearGradient id="e" gradientUnits="userSpaceOnUse" x1="8.702" x2="11.552" y1="11.766" y2="8.189"><stop offset="0" stop-color="#10d9ed"/><stop offset="1" stop-color="#10d9ed" stop-opacity=".3"/></linearGradient><linearGradient id="f" gradientUnits="userSpaceOnUse" x1="8.111" x2="10.077" y1="13.093" y2="9.511"><stop offset="0" stop-color="#fa51d3"/><stop offset=".959" stop-color="#fa51d3" stop-opacity="0"/></linearGradient><linearGradient id="g" gradientUnits="userSpaceOnUse" x1="5.624" x2="8.593" y1="18.493" y2="11.318"><stop offset="0" stop-color="#ffe700"/><stop offset="1" stop-color="#ffe700" stop-opacity="0"/></linearGradient><clipPath id="h"><path d="m0 0h15v23h-15z"/></clipPath><g clip-path="url(#h)"><path d="m2.805.352c0-.194.149-.352.333-.352h1.522c.184 0 .333.158.333.352v5.323h-2.188zm7.155 0c0-.194.15-.352.334-.352h1.522c.184 0 .333.158.333.352v5.323h-2.188v-5.323z" fill="#000"/><path d="m0 6.605c0-.512.392-.927.876-.927h13.244c.483 0 .876.415.876.927v4.617c0 4.38-3.357 7.931-7.498 7.931-4.14 0-7.497-3.55-7.497-7.931v-4.617z" fill="url(#b)"/><path d="m4.992 18.481h5.006v.66c0 .96-.736 1.739-1.643 1.739h-1.72c-.907 0-1.643-.779-1.643-1.738z" fill="url(#c)"/><path d="m5.805 20.602h3.384v1.24c0 .64-.49 1.158-1.095 1.158h-1.194c-.605 0-1.095-.519-1.095-1.159v-1.24z" fill="url(#d)"/><g clip-rule="evenodd" fill-rule="evenodd"><path d="m14.401 14.32c-1.155-4.46-5.015-7.739-9.598-7.739a9.485 9.485 0 0 0 -4.803 1.305v3.336c0 3.452 2.085 6.388 4.995 7.478v.441c0 .639.325 1.197.81 1.499v1.201c0 .64.49 1.159 1.095 1.159h1.194c.606 0 1.096-.52 1.096-1.16v-1.2c.485-.302.81-.86.81-1.499v-.44c1.983-.744 3.583-2.344 4.401-4.381z" fill="url(#e)"/><path d="m12.609 17.024c-.369-4.469-3.913-7.974-8.233-7.974a7.897 7.897 0 0 0 -4.376 1.324v.848c0 3.452 2.085 6.388 4.995 7.478v.442c0 .638.325 1.196.81 1.498v1.201c0 .64.49 1.159 1.095 1.159h1.194c.605 0 1.096-.519 1.096-1.159v-1.2c.485-.303.81-.861.81-1.5v-.44a7.434 7.434 0 0 0 2.609-1.677z" fill="url(#f)"/><path d="m10.008 18.7c-.156-3.643-2.996-6.545-6.477-6.545a6.19 6.19 0 0 0 -3.312.96c.602 2.604 2.42 4.702 4.78 5.586v.44c0 .64.325 1.197.81 1.5v1.2c0 .64.49 1.16 1.095 1.16h1.194c.605 0 1.095-.52 1.095-1.16v-1.2c.485-.303.81-.86.81-1.5v-.44l.005-.002z" fill="url(#g)"/></g></g></svg>