<svg width="96" height="96" viewBox="0 0 96 96" fill="none" xmlns="http://www.w3.org/2000/svg">
<rect width="96" height="96" rx="48" fill="url(#paint0_linear)"/>
<path d="M62.251 30C57.8618 30 53.7278 31.6196 50.5255 34.4483L57.2997 44.5209C58.4017 42.8385 60.2542 41.829 62.251 41.829C65.5124 41.829 68.1673 44.4839 68.1673 47.7453C68.1673 51.0067 65.5124 53.6617 62.251 53.6617C60.2505 53.6617 58.4017 52.6559 57.2554 50.9069L48.6027 38.0425C45.3081 33.0062 39.7541 30 33.749 30C23.9612 30 16 37.9612 16 47.749C16 57.5369 23.9612 65.498 33.749 65.498C38.1382 65.498 42.2722 63.8784 45.4745 61.0497L38.7003 50.9734C37.5983 52.6596 35.7495 53.6654 33.749 53.6654C30.4876 53.6654 27.8327 51.0104 27.8327 47.749C27.8327 44.4876 30.4876 41.8327 33.749 41.8327C35.7495 41.8327 37.5983 42.8385 38.7446 44.5875L47.3973 57.4518C50.6882 62.4918 56.2422 65.498 62.251 65.498C72.0388 65.498 80 57.5369 80 47.749C80 37.9612 72.0351 30 62.251 30Z" fill="white"/>
<defs>
<linearGradient id="paint0_linear" x1="-4.02331e-07" y1="96" x2="94.9356" y2="-1.0413" gradientUnits="userSpaceOnUse">
<stop stop-color="#6200EA"/>
<stop offset="1" stop-color="#304FFE"/>
</linearGradient>
</defs>
</svg>
