<svg fill="none" height="400" viewBox="0 0 400 400" width="400" xmlns="http://www.w3.org/2000/svg"><g fill="#f3ba2f"><path d="m141.739 176.061 58.259-58.257 58.291 58.288 33.899-33.9-92.19-92.192-92.159 92.161z"/><path d="m117.8 199.992-33.8992-33.898-33.9005 33.9 33.8988 33.899z"/><path d="m141.739 223.935 58.259 58.257 58.288-58.286 33.919 33.881-.017.019-92.19 92.19-92.161-92.159-.047-.048z"/><path d="m316.099 233.909 33.901-33.9-33.899-33.899-33.9 33.9z"/><path d="m234.384 199.98h.014l-34.4-34.399-25.421 25.421h-.003l-2.919 2.922-6.025 6.025-.047.048.047.05 34.368 34.368 34.4-34.399.016-.019z"/></g></svg>