<svg fill="none" height="400" viewBox="0 0 400 400" width="400" xmlns="http://www.w3.org/2000/svg"><path d="m400 0h-400v400h400z" fill="#fff"/><g fill="#f3ba2f"><path d="m137.855 174.465 62.143-62.141 62.176 62.174 36.16-36.16-98.336-98.338-98.303 98.305z"/><path d="m112.319 199.992-36.1585-36.159-36.1605 36.161 36.1587 36.159z"/><path d="m137.855 225.531 62.143 62.141 62.174-62.172 36.18 36.139-.018.021-98.336 98.335-98.305-98.303-.051-.05z"/><path d="m323.839 236.17 36.161-36.161-36.159-36.158-36.161 36.16z"/><path d="m236.676 199.979h.015l-36.693-36.693-27.116 27.117h-.003l-3.114 3.116-6.427 6.427-.05.051.05.053 36.66 36.659 36.693-36.692.017-.02z"/></g></svg>