<svg width="48" height="48" viewBox="0 0 48 48" fill="none" xmlns="http://www.w3.org/2000/svg">
<path d="M14.6094 1.70397C14.6094 1.31599 14.9074 1 15.2753 1H18.3192C18.6872 1 18.9852 1.31599 18.9852 1.70397V12.3495H14.6094V1.70397ZM28.9188 1.70397C28.9188 1.31599 29.2187 1 29.5867 1H32.6306C32.9986 1 33.2966 1.31599 33.2966 1.70397V12.3495H28.9208V1.70397H28.9188Z" fill="black"/>
<path d="M9 14.2094C9 13.1854 9.78397 12.3555 10.7519 12.3555H37.2388C38.2047 12.3555 38.9907 13.1854 38.9907 14.2094V23.443C38.9907 32.2026 32.277 39.3043 23.9953 39.3043C15.7157 39.3043 9.002 32.2046 9.002 23.443V14.2094H9Z" fill="url(#paint0_linear_4263_231)"/>
<path d="M18.9844 37.9602H28.9959V39.2801C28.9959 41.2001 27.524 42.758 25.7101 42.758H22.2702C20.4563 42.758 18.9844 41.2001 18.9844 39.2821V37.9602V37.9602Z" fill="url(#paint1_linear_4263_231)"/>
<path d="M20.6094 42.2024H27.3771V44.6823C27.3771 45.9623 26.3971 46.9982 25.1872 46.9982H22.7993C21.5893 46.9982 20.6094 45.9603 20.6094 44.6803V42.2004V42.2024Z" fill="url(#paint2_linear_4263_231)"/>
<path fill-rule="evenodd" clip-rule="evenodd" d="M37.8007 29.6389C35.4908 20.7193 27.7712 14.1616 18.6056 14.1616C15.2285 14.161 11.9125 15.062 9 16.7715L9 23.4432C9 30.3469 13.1698 36.2187 18.9896 38.3986V39.2805C18.9896 40.5585 19.6395 41.6744 20.6095 42.2784V44.6803C20.6095 45.9602 21.5895 46.9982 22.7994 46.9982H25.1873C26.3992 46.9982 27.3792 45.9582 27.3792 44.6783V42.2784C28.3492 41.6744 28.9991 40.5585 28.9991 39.2805V38.4006C32.965 36.9126 36.1648 33.7128 37.8007 29.6389Z" fill="url(#paint3_linear_4263_231)"/>
<path fill-rule="evenodd" clip-rule="evenodd" d="M34.2169 35.0467C33.4789 26.1091 26.3912 19.0994 17.7516 19.0994C14.6371 19.0998 11.5923 20.021 9 21.7472V23.4432C9 30.3469 13.1698 36.2186 18.9896 38.3985V39.2825C18.9896 40.5584 19.6395 41.6744 20.6095 42.2784V44.6803C20.6095 45.9602 21.5895 46.9982 22.7994 46.9982H25.1873C26.3972 46.9982 27.3792 45.9602 27.3792 44.6803V42.2804C28.3492 41.6744 28.9991 40.5584 28.9991 39.2805V38.4005C30.9548 37.6619 32.7328 36.519 34.2169 35.0467V35.0467Z" fill="url(#paint4_linear_4263_231)"/>
<path fill-rule="evenodd" clip-rule="evenodd" d="M29.0147 38.3985C28.7027 31.1128 23.0229 25.3091 16.0612 25.3091C13.716 25.3087 11.419 25.9745 9.4375 27.229C10.6414 32.4368 14.2773 36.6326 18.9971 38.4005V39.2805C18.9971 40.5604 19.6471 41.6744 20.617 42.2803V44.6802C20.617 45.9602 21.597 47.0001 22.8069 47.0001H25.1948C26.4048 47.0001 27.3847 45.9602 27.3847 44.6802V42.2803C28.3547 41.6744 29.0047 40.5604 29.0047 39.2805V38.4005L29.0147 38.3965V38.3985Z" fill="url(#paint5_linear_4263_231)"/>
<defs>
<linearGradient id="paint0_linear_4263_231" x1="29.0111" y1="22.343" x2="40.4066" y2="11.5595" gradientUnits="userSpaceOnUse">
<stop stop-color="#46FF47"/>
<stop offset="1" stop-color="#9CFF9D"/>
</linearGradient>
<linearGradient id="paint1_linear_4263_231" x1="29.0059" y1="22.3409" x2="40.4014" y2="11.5594" gradientUnits="userSpaceOnUse">
<stop stop-color="#46FF47"/>
<stop offset="1" stop-color="#9CFF9D"/>
</linearGradient>
<linearGradient id="paint2_linear_4263_231" x1="29.009" y1="22.3433" x2="40.4045" y2="11.5598" gradientUnits="userSpaceOnUse">
<stop stop-color="#46FF47"/>
<stop offset="1" stop-color="#9CFF9D"/>
</linearGradient>
<linearGradient id="paint3_linear_4263_231" x1="26.4032" y1="24.5312" x2="32.103" y2="17.3775" gradientUnits="userSpaceOnUse">
<stop stop-color="#10D9ED"/>
<stop offset="1" stop-color="#10D9ED" stop-opacity="0.3"/>
</linearGradient>
<linearGradient id="paint4_linear_4263_231" x1="25.2213" y1="27.185" x2="29.1531" y2="20.0213" gradientUnits="userSpaceOnUse">
<stop stop-color="#FA51D3"/>
<stop offset="0.959" stop-color="#FA51D3" stop-opacity="0"/>
</linearGradient>
<linearGradient id="paint5_linear_4263_231" x1="20.247" y1="37.9845" x2="26.1848" y2="23.6352" gradientUnits="userSpaceOnUse">
<stop stop-color="#FFE700"/>
<stop offset="1" stop-color="#FFE700" stop-opacity="0"/>
</linearGradient>
</defs>
</svg>
