<svg enable-background="new 0 0 512 269.83" viewBox="0 0 512 269.83" xmlns="http://www.w3.org/2000/svg"><g fill="#304ffe"><path d="m272.23 57.29-45.47 80.54-46.02-80.54h-55.85l74.12 128.11-49.35 84.43h55.58l122.24-212.54z"/><path d="m406.06 61.08c-6.66-3.5-14.79-5.27-24.25-5.27-22.11 0-41.18 8.07-56.68 23.98-15.47 15.88-23.31 35.22-23.31 57.49s7.59 41.45 22.56 57.02c15 15.64 33.83 23.57 55.96 23.57 9.45 0 18.08-1.75 25.72-5.23v55.72h48.65v-211.66h-48.65zm-55.58 76.2c0-10.24 3.12-18.61 9.54-25.57 6.34-6.86 13.46-10.2 21.8-10.2 12.33 0 20.27 4.25 24.25 13v43.35c-2.04 3.87-5.19 7.21-9.36 9.94-4.42 2.88-9.92 4.35-16.36 4.35-8.31 0-15.18-3.17-21.01-9.7-5.97-6.67-8.86-14.9-8.86-25.17z"/><path d="m463.35 0h48.65v214.9h-48.65z"/><path d="m117.22 127.08c.33 1.95.6 3.93.6 5.98 0 19.97-16.19 36.16-36.16 36.16s-36.16-16.19-36.16-36.16 16.19-36.15 36.16-36.15c8.16 0 15.61 2.81 21.66 7.37l13.77-44.48c-10.76-5.22-22.68-8.4-35.44-8.4-45.09-.01-81.65 36.55-81.65 81.66 0 45.1 36.56 81.67 81.67 81.67 44.43 0 80.4-35.52 81.47-79.7z"/></g></svg>