<svg fill="none" height="48" viewBox="0 0 90 48" width="90" xmlns="http://www.w3.org/2000/svg"><g fill="#304ffe"><path d="m69.1228 14.3126c-1.79-1.6081-4.0554-2.566-6.7962-2.566-6.6144 0-11.8025 5.4817-11.8025 12.4038 0 6.922 5.1881 12.4038 11.8025 12.4038 2.7408 0 5.0062-.951 6.7962-2.5661v14.0119h7.5723v-35.778h-7.5723zm-5.3069 15.5013c-3.1604 0-5.6635-2.5032-5.6635-5.6635 0-3.1604 2.5031-5.6635 5.6635-5.6635 3.0974 0 5.6635 2.5031 5.6635 5.6635 0 3.1603-2.5661 5.6635-5.6635 5.6635z"/><path d="m89.4974 0h-7.6283v36.0717h7.6283z"/><path d="m42.9029 12.2222-5.8383 15.8019-5.9642-15.8019h-7.9289l9.9566 24.388-4.6357 11.383h7.9709l14.3126-35.771z"/><path d="m18.0253 23.5422c.021.1958.035.3986.035.6013 0 3.1254-2.5311 5.6565-5.6565 5.6565-3.12543 0-5.65653-2.5311-5.65653-5.6565s2.5311-5.6565 5.65653-5.6565c1.3424 0 2.58.4685 3.5449 1.2516l4.2372-5.251c-2.1256-1.72-4.8315-2.7479-7.7821-2.7479-6.85216.007-12.4038 5.5587-12.4038 12.4108 0 6.8522 5.55164 12.4038 12.4038 12.4038 6.8521 0 12.4038-5.5516 12.4038-12.4038 0-.4475-.028-.888-.0699-1.3215z"/></g></svg>